<?xml version="1.0" encoding="UTF-8"?>
<!DOCTYPE svg PUBLIC "-//W3C//DTD SVG 1.1//EN" "http://www.w3.org/Graphics/SVG/1.1/DTD/svg11.dtd">
<!-- Creator: CorelDRAW (Evaluation Version) -->
<svg xmlns="http://www.w3.org/2000/svg" xml:space="preserve" width="11.4173in" height="8.26772in" version="1.1" style="shape-rendering:geometricPrecision; text-rendering:geometricPrecision; image-rendering:optimizeQuality; fill-rule:evenodd; clip-rule:evenodd"
viewBox="0 0 11417.32 8267.72"
 xmlns:xlink="http://www.w3.org/1999/xlink"
 xmlns:xodm="http://www.corel.com/coreldraw/odm/2003">
 <defs>
  <style type="text/css">
   <![CDATA[
    .fil0 {fill:black;fill-rule:nonzero}
    .fil1 {fill:#FF6600;fill-rule:nonzero}
   ]]>
  </style>
 </defs>
 <g id="Layer_x0020_1">
  <metadata id="CorelCorpID_0Corel-Layer"/>
  <path class="fil0" d="M5103.76 2896.76c34.09,-103.7 69.68,-214.45 107,-332.49 172.32,-586.94 331.4,-982.64 474.28,-1188.38 45.46,-65.91 96.22,-122.96 153.69,-173.26 106.89,-83.81 223.17,-146.39 347.4,-190.04 123.39,-43.26 246.86,-65.59 371.48,-65.91l-1453.85 1950.07z"/>
  <path class="fil0" d="M1349.26 3903.48l269.86 -620.45 371.47 -791.5c128.3,-286.14 241.82,-513.1 344.76,-679.62 72.15,-117.41 109.56,-201.21 109.56,-249.3 0,-62.58 -61.45,-131.9 -183.04,-206.84 -78.88,-45.79 -118.92,-86.03 -118.92,-120.74 0,-43.57 81.53,-91.66 243.15,-141.96 137.57,-48 295.33,-89.44 472.97,-126.28 176.41,-35.81 320.72,-53.71 430.26,-53.71 219.12,0 383.5,49.2 495.71,147.59 130.95,110.67 291.35,458.37 481.02,1039.6 77.55,237.02 164.37,466.21 259.25,686.44 94.89,221.33 172.34,380.09 235.22,476.18 6.72,12.99 17.41,30.02 31.9,51.34l-935.9 1255.39c-335.78,-547.72 -605.72,-1109.63 -809.02,-1684.52 -49.44,-127.46 -88.17,-245.98 -113.54,-357.77l-16.1 0 -472.97 1248.68c-5.4,22.34 -16,49.19 -30.77,83.81 -16.01,33.58 -29.37,66 -40.06,96.18 -10.69,24.55 -22.72,51.41 -37.39,80.49 -13.36,29.07 -26.7,53.62 -36.08,73.75 -86.84,216.89 -156.33,381.2 -211.16,490.76 -54.73,109.56 -109.54,200.12 -164.28,271.64 -46.78,67.11 -116.28,140.86 -207.18,219.12 -133.61,101.73 -280.57,182.21 -442.2,240.36 -161.74,59.26 -322.04,88.33 -481.02,88.33 -132.28,0 -199.13,-44.77 -199.13,-134.2 0,-67.04 58.8,-183.33 176.41,-348.74 134.93,-188.93 287.28,-449.41 456.96,-780.31 28.03,-69.32 68.07,-154.24 120.25,-253.74z"/>
  <path class="fil0" d="M6981.68 5141.3l78.78 -147.59c614.62,-1167.07 1060.98,-1926.07 1337.57,-2277.09 44.03,-48.09 81.43,-86.11 113.53,-112.97 30.78,-27.89 66.85,-52.52 106.91,-73.76 41.38,-22.34 93.55,-43.57 158.98,-65.91 187.11,-68.21 430.26,-101.8 726.93,-101.8 155,0 251.21,11.25 292.59,32.48 40.06,22.34 60.13,71.54 60.13,147.51 0,59.26 -2.65,123.03 -8.05,190.05 -21.3,394.59 -32,674.08 -32,840.68 0,419.23 33.33,817.15 101.51,1192.73 45.45,210.17 110.88,423.75 196.38,639.46 92.23,193.38 179.06,340.96 263.24,443.79 98.95,112.89 183.13,196.78 251.21,249.3 84.18,69.32 125.65,122.95 125.65,159.87 0,68.21 -69.5,159.87 -207.18,276.08 -232.46,187.83 -464.92,281.7 -697.48,281.7 -326.01,0 -622.58,-117.32 -888.46,-351.02 -136.35,-114 -243.26,-240.27 -323.36,-378.91 -80.2,-138.63 -139,-310.78 -177.73,-515.4 -40.15,-204.55 -65.52,-465.02 -78.88,-779.13 -18.65,-342.07 -28.03,-534.34 -30.68,-577.91l-16.1 0c-164.28,264.91 -300.64,486.25 -410.19,662.83 -109.56,177.77 -199.04,324.24 -268.54,440.46 -68.18,115.19 -149.7,254.93 -244.48,417.02 -296.66,515.32 -490.39,827.21 -582.62,934.56 -3.98,4.44 -14.68,14.5 -30.68,30.19 -16.1,14.5 -29.45,26.78 -42.8,35.73 -44.13,34.7 -94.88,61.47 -151.03,80.48 -56.06,19.02 -102.83,27.96 -142.89,27.96 -109.65,0 -229.91,-57.04 -360.86,-172.14 -132.28,-115.19 -247.14,-262.69 -345.99,-444.9 -101.6,-192.26 -184.46,-387.94 -248.56,-586.94 -64.11,-200.11 -120.26,-435.94 -168.36,-709.81 -49.43,-272.76 -90.9,-607.06 -128.3,-1001.66l-16 0c-77.46,144.18 -136.26,251.52 -176.41,323.06 -38.73,72.65 -100.18,183.31 -180.38,333.12 -81.43,149.81 -128.21,237.03 -141.56,261.59 -108.23,197.89 -220.53,398 -338.13,600.33 -118.83,202.33 -213.71,357.76 -284.54,467.32 -72.15,109.48 -151.03,217.93 -236.53,325.28 -40.06,50.31 -108.23,121.84 -208.41,213.5 -153.68,122.95 -322.04,219.12 -503.74,287.33 -68.18,25.82 -134.84,46.9 -200.17,63.06l3116.11 -4330.32c53.78,25.74 100.37,56.01 139.85,90.78 94.88,82.79 181.71,247.09 263.24,490.77 80.2,243.68 161.63,598.11 241.83,1062.02 5.4,26.78 9.37,46.9 12.02,61.47 2.65,14.5 5.4,26.86 8.05,38.03 2.65,10.06 3.98,24.56 3.98,42.46 14.68,61.48 22.72,101.72 22.72,121.84 54.82,282.81 96.2,465.02 125.56,546.61 28.13,82.79 69.5,154.32 124.33,215.8z"/>
  <path class="fil1" d="M10481.35 5937.84c61.52,64.9 115.87,115.76 162.63,151.84 84.19,69.32 125.66,122.94 125.66,159.86 0,68.2 -69.5,159.88 -207.19,276.08 -232.46,187.84 -464.92,281.72 -697.49,281.72 -325.99,0 -622.57,-117.33 -888.46,-351.04 -136.33,-113.99 -243.24,-240.27 -323.35,-378.9 -25.04,-43.28 -48,-89.81 -68.9,-139.56l1897.09 0z"/>
 </g>
</svg>
