<?xml version="1.0" encoding="UTF-8"?>
<!DOCTYPE svg PUBLIC "-//W3C//DTD SVG 1.1//EN" "http://www.w3.org/Graphics/SVG/1.1/DTD/svg11.dtd">
<!-- Creator: CorelDRAW (Evaluation Version) -->
<svg xmlns="http://www.w3.org/2000/svg" xml:space="preserve" width="11.4173in" height="8.26772in" version="1.1" style="shape-rendering:geometricPrecision; text-rendering:geometricPrecision; image-rendering:optimizeQuality; fill-rule:evenodd; clip-rule:evenodd"
viewBox="0 0 11417.32 8267.72"
 xmlns:xlink="http://www.w3.org/1999/xlink"
 xmlns:xodm="http://www.corel.com/coreldraw/odm/2003">
 <defs>
  <style type="text/css">
   <![CDATA[
    .fil0 {fill:black;fill-rule:nonzero}
    .fil1 {fill:#FF6600;fill-rule:nonzero}
   ]]>
  </style>
 </defs>
 <g id="Layer_x0020_1">
  <metadata id="CorelCorpID_0Corel-Layer"/>
  <path class="fil0" d="M1770.87 3222.54l68.38 -187.91 94.13 -239.72c32.51,-86.66 61.28,-155.4 87.36,-205.84 18.28,-35.56 27.76,-60.94 27.76,-75.5 0,-18.96 -15.57,-39.95 -46.38,-62.65 -19.99,-13.87 -30.13,-26.06 -30.13,-36.57 0,-13.2 20.66,-27.76 61.61,-43 34.86,-14.54 74.83,-27.09 119.85,-38.24 44.7,-10.85 81.26,-16.27 109.02,-16.27 55.52,0 97.17,14.9 125.6,44.7 33.19,33.52 73.83,138.83 121.89,314.87 19.65,71.79 41.65,141.2 65.7,207.9 24.04,67.04 43.67,115.12 59.6,144.22 4.72,10.85 16.91,31.15 36.56,61.61 22,-69.39 47.72,-160.46 77.52,-273.21 43.67,-177.77 83.98,-297.61 120.18,-359.92 11.52,-19.96 24.38,-37.24 38.94,-52.48 27.09,-25.38 56.55,-44.34 88.03,-57.56 31.48,-13.2 62.98,-19.96 94.8,-19.96 19.31,0 32.51,5.06 39.95,14.9 7.13,9.81 10.84,27.76 10.84,53.48 0,18.96 -1.37,33.19 -4.41,42.66 -7.1,34.19 -18.96,78.89 -35.2,133.4 -16.61,54.85 -39.95,124.93 -70.09,210.93 -30.13,85.66 -67.37,189.62 -112.41,311.84l-14.9 36.57c-5.42,15.91 -9.81,28.77 -13.87,38.92 -79.92,223.47 -140.86,368.37 -182.49,435.07 -8.47,13.56 -18.98,26.42 -30.81,38.61 -20.32,20.32 -40.64,30.47 -60.61,30.47 -50.79,0 -105.64,-54.18 -164.54,-162.17 -107.01,-193.34 -190.96,-392.75 -251.57,-597.57 -12.52,-38.61 -22.34,-74.5 -28.77,-108.35l-4.08 0 -119.85 378.18c-1.37,6.76 -4.06,14.9 -7.8,25.39 -4.06,10.17 -7.44,19.98 -10.15,29.13 -2.71,7.44 -5.76,15.57 -9.48,24.38 -3.38,8.8 -6.76,16.24 -9.14,22.34 -22,65.69 -39.61,115.45 -53.51,148.64 -13.87,33.18 -27.76,60.61 -41.63,82.27 -11.85,20.32 -29.46,42.66 -52.5,66.37 -33.85,30.81 -71.09,55.18 -112.05,72.8 -40.98,17.94 -81.6,26.75 -121.89,26.75 -33.52,0 -50.46,-13.56 -50.46,-40.65 0,-20.3 14.9,-55.52 44.7,-105.62 34.19,-57.22 72.8,-136.11 115.79,-236.33 7.1,-20.99 17.25,-46.71 30.47,-76.85zm2183.46 2.38l2.02 0 -4.06 0c-50.1,87.33 -94.13,157.76 -131.7,211.26 -37.93,53.84 -73.8,97.51 -108.02,132.04 -42.3,42.32 -84.63,74.5 -126.95,96.83 -42.32,22 -82.61,33.19 -121.21,33.19 -80.59,0 -143.22,-24.38 -188.25,-72.8 -45.04,-48.76 -67.37,-117.14 -67.37,-205.17 0,-113.78 31.15,-281.03 93.12,-502.1 21.33,-73.47 42.66,-142.21 64.66,-206.2 21.67,-64.32 45.37,-126.61 70.42,-186.55 25.05,-60.27 44.34,-102.93 58.23,-128.31 9.81,-16.94 23.37,-30.81 39.95,-40.98 16.94,-10.48 40.98,-18.62 71.79,-25.39 47.39,-9.14 92.09,-13.89 133.74,-13.89 69.75,0 104.61,30.47 104.61,91.08 0,34.21 -14.56,85.65 -44.36,153.72 -26.73,65 -48.06,121.21 -63.99,168.93 -1.35,3.74 -3.39,10.51 -6.77,20.32 -3.38,9.48 -7.1,21.33 -11.85,35.22 -12.52,39.61 -29.1,99.19 -50.09,178.75 -21,79.56 -37.57,146.93 -49.43,202.48 -11.85,55.52 -17.94,91.75 -17.94,108.33 0,24.38 7.1,36.57 20.99,36.57 14.9,0 49.43,-34.53 102.91,-103.27 50.79,-65.33 108.69,-148.61 174.05,-249.53 65,-100.89 118.48,-190.6 160.8,-269.16 27.76,-51.13 48.08,-85.99 60.94,-104.61 12.88,-18.98 26.08,-33.18 39.28,-43.35 34.89,-25.72 76.18,-38.58 123.93,-38.58 60.61,0 91.08,27.76 91.08,83.28 0,11.18 -2.04,34.53 -5.76,69.41 -17.94,144.22 -26.75,277.63 -26.75,399.85 0,55.52 1.7,105.98 5.09,150.68 3.05,45.01 8.13,89.04 14.56,132.04 6.77,43 15.57,88.37 26.73,135.78 13.89,64.32 20.66,103.6 20.66,118.14 0,10.51 -3.72,20.66 -10.82,29.8 -10.51,15.91 -31.5,28.79 -62.65,38.61 -57.56,22 -101.23,32.85 -131.7,32.85 -38.27,0 -74.5,-13.89 -108.69,-41.65 -33.85,-27.76 -62.28,-66.7 -84.65,-117.13 -25.72,-58.93 -42.66,-135.78 -50.43,-230.91 -2.04,-15.93 -4.08,-42.32 -6.09,-79.56zm1753.47 -48.08l19.96 -44.7c155.74,-353.47 268.84,-583.35 338.93,-689.66 11.16,-14.56 20.63,-26.08 28.77,-34.21 7.8,-8.44 16.94,-15.91 27.09,-22.34 10.48,-6.76 23.7,-13.2 40.28,-19.96 47.41,-20.66 109.03,-30.83 184.2,-30.83 39.28,0 63.65,3.41 74.14,9.83 10.15,6.77 15.23,21.67 15.23,44.68 0,17.94 -0.67,37.26 -2.04,57.56 -5.4,119.51 -8.11,204.16 -8.11,254.61 0,126.97 8.44,247.49 25.72,361.24 11.52,63.65 28.09,128.34 49.76,193.67 23.37,58.57 45.37,103.27 66.7,134.41 25.07,34.19 46.41,59.6 63.65,75.51 21.33,20.99 31.84,37.24 31.84,48.42 0,20.66 -17.61,48.42 -52.5,83.61 -58.9,56.89 -117.81,85.32 -176.73,85.32 -82.61,0 -157.76,-35.54 -225.13,-106.31 -34.55,-34.53 -61.64,-72.77 -81.94,-114.76 -20.32,-41.99 -35.22,-94.13 -45.04,-156.1 -10.17,-61.95 -16.6,-140.84 -19.98,-235.98 -4.73,-103.6 -7.1,-161.83 -7.78,-175.03l-4.08 0c-41.63,80.23 -76.18,147.27 -103.94,200.75 -27.76,53.84 -50.43,98.2 -68.05,133.4 -17.28,34.89 -37.93,77.21 -61.95,126.3 -75.17,156.07 -124.26,250.54 -147.63,283.05 -1.01,1.34 -3.72,4.39 -7.78,9.14 -4.08,4.39 -7.46,8.11 -10.84,10.82 -11.18,10.51 -24.04,18.62 -38.27,24.37 -14.2,5.76 -26.06,8.47 -36.2,8.47 -27.78,0 -58.26,-17.28 -91.44,-52.14 -33.52,-34.89 -62.62,-79.56 -87.67,-134.75 -25.74,-58.23 -46.74,-117.49 -62.98,-177.76 -16.24,-60.61 -30.47,-132.04 -42.66,-214.98 -12.52,-82.61 -23.03,-183.86 -32.51,-303.37l-4.05 0c-19.63,43.67 -34.53,76.18 -44.7,97.85 -9.81,22 -25.39,55.52 -45.71,100.89 -20.63,45.37 -32.48,71.79 -35.87,79.22 -27.42,59.94 -55.88,120.54 -85.68,181.82 -30.11,61.28 -54.15,108.35 -72.1,141.54 -18.28,33.16 -38.27,66 -59.93,98.52 -10.15,15.24 -27.43,36.9 -52.81,64.66 -38.94,37.24 -81.6,66.37 -127.64,87.02 -46.38,20.99 -90.07,31.48 -131.7,31.48 -15.93,0 -29.8,-4.06 -41.65,-11.85 -11.85,-8.13 -17.95,-18.28 -17.95,-30.81 0,-11.18 8.81,-26.08 26.75,-44.7 10.15,-11.85 31.48,-42.32 64.66,-91.41l57.56 -89.37c35.89,-53.15 89.71,-147.96 161.83,-285.09l47.75 -89.37c111.38,-213.3 186.55,-359.23 225.49,-437.78 38.94,-78.56 58.57,-123.9 58.57,-136.45 0,-13.87 -10.15,-29.44 -30.13,-46.71 -15.57,-12.52 -23.37,-23.7 -23.37,-32.85 0,-14.54 19.31,-28.43 57.56,-41.29 38.61,-12.86 80.26,-19.31 125.27,-19.31 90.74,0 155.41,20.32 193.67,60.61 24.04,25.07 46.04,74.83 66.7,148.64 20.32,73.8 40.96,181.15 61.28,321.65 1.37,8.11 2.37,14.2 3.05,18.62 0.67,4.39 1.37,8.13 2.04,11.52 0.67,3.05 1.01,7.44 1.01,12.86 3.72,18.62 5.76,30.81 5.76,36.9 13.89,85.65 24.38,140.84 31.81,165.55 7.13,25.07 17.61,46.74 31.5,65.36zm1700.64 -626.37l-126.97 434.4c7.8,1.68 15.57,2.37 23.7,2.37 34.53,0 75.17,-16.27 121.21,-48.76 57.56,-40.31 102.57,-83.64 134.41,-129.68 31.81,-46.04 47.72,-90.74 47.72,-134.41 0,-90.74 -47.39,-136.11 -142.19,-136.11 -26.08,0 -45.7,4.06 -57.89,12.19zm-148.98 509.9c-2.71,8.44 -5.42,17.93 -8.13,28.77 -2.71,10.49 -5.42,20.32 -8.11,29.46 -31.5,105.28 -59.94,190.6 -86.35,255.96 -26.06,65.33 -53.48,121.21 -82.61,166.56 -16.58,27.78 -40.29,57.22 -71.43,88.37 79.9,24.38 137.12,40.31 170.98,47.75 34.19,7.1 68.04,10.85 101.9,10.85 38.94,0 73.47,-5.76 103.6,-17.28 30.14,-11.52 58.57,-30.47 84.98,-56.19 38.94,-38.27 70.76,-83.64 95.13,-136.45 24.71,-53.17 36.9,-104.28 36.9,-153.72 0,-54.18 -18.95,-100.22 -56.53,-137.8 -18.28,-18.62 -38.94,-32.85 -61.95,-42.66 -22.7,-9.81 -54.18,-18.28 -94.46,-24.71 -37.26,-7.46 -62.98,-14.23 -77.54,-21 -14.57,-6.76 -30.14,-19.29 -46.38,-37.91zm-433.36 129.66l116.13 -357.19c22.67,-63.99 49.76,-126.3 81.24,-186.91 -3.05,0.7 -10.82,4.08 -22.67,10.84 -45.71,18.62 -77.88,27.76 -97.17,27.76 -27.09,0 -40.62,-10.15 -40.62,-30.81 0,-22 10.48,-53.15 31.81,-94.46 20.99,-40.96 42.32,-71.79 63.31,-92.42 48.42,-44.36 121.89,-79.22 220.74,-105.31 98.87,-25.72 209.24,-38.6 331.8,-38.6 73.83,0 140.87,6.45 200.78,18.98 59.94,12.53 110.73,31.15 153.06,55.86 42.3,25.05 74.47,54.85 96.81,90.07 22.03,35.2 33.19,74.14 33.19,117.13 0,60.27 -12.53,113.75 -37.57,160.83 -25.39,47.05 -65,91.08 -119.17,132.04 -60.27,45.04 -117.16,74.83 -170.64,89.4 -5.76,2.02 -16.27,4.06 -30.81,6.09l0 5.06c231.92,29.46 348.05,125.27 348.05,287.1 0,32.51 -5.43,66.37 -16.24,101.25 -11.18,34.86 -26.75,69.41 -47.75,102.93 -20.66,33.85 -45.7,64.66 -74.83,92.42 -62.62,61.28 -137.12,118.5 -223.45,171.31 -86.33,52.81 -173.02,95.47 -260.37,127.98 -87,32.18 -161.83,48.42 -223.78,48.42 -52.47,0 -102.26,-6.09 -150.32,-17.95 -47.74,-11.85 -86.02,-27.43 -114.45,-47.05 -28.43,-19.31 -42.66,-40.31 -42.66,-62.98 0,-20.32 5.76,-39.61 17.28,-57.22 11.49,-17.95 32.82,-39.95 63.99,-66.37l-3.74 -4.06c-17.92,6.43 -35.53,9.81 -52.81,9.81 -36.23,0 -65.67,-10.49 -88.37,-31.81 -22.67,-21 -33.85,-49.76 -33.85,-85.99 0,-20.66 9.14,-68.41 27.76,-143.55 18.62,-75.17 40.28,-152.72 65.36,-232.61zm1838.77 -143.55l-10.15 42.66c-3.41,14.57 -6.09,26.75 -8.81,37.24 -2.71,10.17 -4.75,18.95 -6.43,26.75 -1.7,7.44 -3.41,15.24 -5.42,23.37 -47.75,203.48 -85.99,330.77 -115.12,381.9 -13.53,22.34 -33.18,42.66 -59.6,60.61 -83.62,54.18 -148.97,81.27 -196.7,81.27 -33.18,0 -60.94,-12.19 -83.98,-36.23 -22.67,-24.04 -34.19,-54.18 -34.19,-89.73 0,-65 28.43,-184.51 85.32,-359.23 17.28,-55.52 32.85,-103.94 47.05,-144.89 14.23,-40.98 31.5,-87.36 51.46,-138.83 20.32,-51.8 43.02,-106.65 68.74,-164.88 25.39,-58.23 43.33,-99.21 53.84,-123.23 -87.02,12.53 -171,18.96 -251.57,18.96 -81.26,0 -121.89,-28.46 -121.89,-85.32 0,-36.23 26.42,-82.28 79.23,-138.49 35.89,-36.56 68.74,-61.61 99.21,-75.84 30.47,-14.2 67.04,-21.33 110.03,-21.33 27.76,0 66,0.69 114.09,2.37 48.42,1.7 115.46,5.76 201.45,11.85l27.76 2.04 26.75 3.05c72.8,3.72 120.54,8.47 143.89,13.87 23.04,5.09 43.02,15.24 59.26,30.47 13.2,15.24 19.96,32.85 19.96,52.5 0,20.97 -4.06,42.66 -12.19,64.66 -8.44,22.34 -18.28,38.58 -30.11,49.09 -16.6,18.62 -62.65,33.85 -138.82,46.38 -6.77,0 -13.53,0.67 -21,2.04l-19.63 4.06c15.91,15.91 23.68,33.52 23.68,52.81 0,18.64 -9.48,58.93 -28.09,120.2 -6.09,15.24 -20.3,65 -43.33,149.65l-14.9 59.6 -9.81 40.62zm1186.7 196.72l-361.94 -2.04 0 24.71c0,48.42 13.87,92.09 41.63,131.7 27.78,39.28 58.59,58.93 92.44,58.93 34.19,0 83.95,-12.52 148.97,-37.93 65.33,-25.05 139.47,-61.28 222.78,-108.33l34.86 -20.66c23.7,-13.22 39.95,-23.37 48.42,-29.8 39.28,-24.71 63.65,-36.9 73.47,-36.9 11.85,0 17.94,10.82 17.94,32.85 0,23.68 -4.39,50.77 -12.86,81.24 -8.81,30.47 -19.63,59.6 -32.85,87.7 -13.2,28.45 -26.39,48.42 -39.61,60.27 -37.57,33.52 -102.24,70.42 -193.65,110.04 -91.08,39.61 -183.86,70.76 -277.98,93.45 -31.48,6.43 -60.61,9.81 -87.33,9.81 -90.41,0 -173.35,-18.28 -248.52,-55.19 -75.17,-36.57 -133.4,-87.36 -174.69,-151.35 -41.32,-64.33 -61.98,-136.09 -61.98,-214.64 0,-65.02 13.56,-136.79 40.65,-214.67 27.09,-78.19 65.33,-156.41 114.09,-234.29 49.09,-77.52 104.28,-148.28 165.91,-211.93 53.48,-55.88 113.42,-106.31 179.44,-151.69 66.34,-45.37 130.67,-80.23 192.98,-104.61 62.63,-24.74 119.85,-36.93 172.32,-36.93 81.94,0 152.38,23.37 210.94,70.08 58.57,46.4 87.7,102.93 87.7,168.96 0,29.1 -5.42,60.94 -15.93,95.47 -10.48,34.22 -24.71,64.33 -42.66,90.41 -18.28,27.76 -46.04,54.85 -82.27,81.27 -36.23,26.39 -77.19,49.43 -122.89,68.38 -54.85,22 -101.93,32.85 -140.84,32.85 -38.94,0 -58.59,-9.48 -58.59,-28.79 0,-11.16 10.85,-28.77 32.85,-52.47 23.7,-21.33 46.74,-50.43 68.41,-87.33 21.33,-38.94 39.95,-84.98 55.85,-137.82 15.91,-53.14 23.7,-94.46 23.7,-124.26 0,-24.38 -7.46,-36.57 -22,-36.57 -23.03,0 -64.69,25.41 -124.93,76.54 -60.27,50.77 -108.02,100.89 -143.22,150.65 -33.18,46.38 -60.27,93.45 -81.6,141.18 -21,48.08 -35.22,95.16 -42.66,141.54l530.2 0c58.23,0 87.36,14.9 87.36,45.04 0,28.09 -32.51,73.8 -97.17,137.12 -64.35,58.57 -122.92,88.03 -176.74,88.03z"/>
  <path class="fil1" d="M1870.76 5277.68c-56.89,-57.56 -96.84,-108.69 -119.87,-153.37 -23.37,-44.36 -34.86,-92.09 -34.86,-143.22 0,-76.51 23.35,-148.64 69.75,-216.35 46.71,-67.37 109.36,-120.88 187.56,-160.49 78.22,-39.61 162.53,-59.6 252.24,-59.6 101.9,0 180.12,21.33 234.96,63.66 54.85,42.32 82.27,102.26 82.27,179.78 0,36.9 -9.81,75.51 -29.8,115.12 -19.63,39.95 -47.39,76.85 -82.27,111.4 -23.68,23.7 -46.04,41.99 -66.34,54.18 -20.66,12.19 -37.93,18.28 -51.8,18.28 -17.28,0 -25.74,-13.22 -25.74,-39.61 0,0.67 1.37,-9.84 4.06,-30.83 4.08,-31.14 6.09,-58.91 6.09,-83.28 0,-34.53 -5.06,-69.08 -15.24,-103.6 -10.48,-34.86 -23.68,-63.99 -39.95,-87.36 -16.24,-23.34 -31.48,-35.2 -46.04,-35.2 -7.44,0 -15.57,5.76 -25.05,16.92 -17.94,18.28 -31.81,41.31 -41.65,68.74 -9.81,27.42 -14.9,53.14 -14.9,76.85 0,29.46 4.42,57.22 12.89,82.61 8.8,25.41 23.68,51.46 45.01,77.88 20.99,26.42 49.11,55.19 84.31,87 55.52,50.12 98.52,94.13 128.65,131.72 30.13,37.91 52.13,75.15 66.03,112.74 13.89,37.24 20.66,77.86 20.66,121.55 0,76.52 -20.32,150.65 -60.61,222.11 -40.28,71.43 -93.79,128.99 -160.15,172.99 -66.34,44.03 -135.08,66.03 -205.84,66.03 -67.37,0 -133.07,-14.56 -197.39,-43.67 -63.99,-29.13 -124.26,-70.78 -180.45,-124.93 -58.23,-57.56 -87.36,-108.35 -87.36,-152.69 0,-27.09 12.86,-53.51 38.61,-79.25 26.39,-26.39 59.24,-48.75 97.84,-67.37 38.58,-18.62 71.09,-27.76 97.85,-27.76 14.9,0 28.09,3.72 38.6,11.52 10.48,7.44 19.96,20.32 28.1,38.6 8.47,18.28 16.58,43 24.37,74.14 12.53,44.36 24.04,77.19 34.86,98.87 10.51,21.33 25.41,42.66 44.37,63.99 19.96,19.96 40.96,29.78 62.62,29.78 26.42,0 47.41,-10.49 62.65,-31.15 15.24,-20.99 22.67,-49.43 22.67,-85.65 0,-56.89 -20.3,-113.75 -60.94,-170.64 -12.19,-19.29 -25.05,-36.23 -39.61,-51.13 -14.2,-14.9 -45.01,-43.67 -92.42,-86.33 -14.23,-11.85 -37.24,-32.85 -68.72,-62.98zm1220.87 188.25l-19.96 65.67c-3.38,14.57 -8.8,34.22 -16.26,58.59 -36.21,125.27 -65.67,207.54 -89.04,246.48 -4.39,8.11 -13.2,19.63 -25.72,34.86 -43,38.94 -95.16,58.57 -156.44,58.57 -48.76,0 -88.37,-10.82 -117.81,-32.15 -29.8,-21.67 -44.7,-49.09 -44.7,-82.94 0,-24.38 8.47,-68.41 25.72,-131.39 17.27,-63.3 36.56,-123.23 57.56,-180.12 -51.47,-9.81 -77.19,-32.15 -77.19,-66.37 0,-24.38 8.13,-52.14 24.38,-82.94 16.58,-30.81 36.9,-58.23 61.61,-82.94 24.71,-24.37 48.76,-40.28 72.13,-47.41 9.81,-28.43 28.77,-88.37 56.53,-179.42 62.65,-198.09 113.1,-331.13 152.02,-398.5 15.93,-22.36 29.46,-39.95 40.65,-52.5 34.19,-32.49 77.86,-48.76 131.36,-48.76 32.85,0 61.95,5.76 87.36,17.28 25.39,11.52 44.68,27.43 58.23,47.75 13.53,19.96 20.3,43.67 20.3,70.76 0,37.57 -46.72,196.36 -140.17,475.69 -1.01,4.75 -3.38,11.52 -6.09,20.32 -3.05,9.14 -5.76,16.91 -8.44,24.38l-3.74 7.77 361.94 -7.77 18.28 -62.65c20.66,-67.37 42.66,-134.07 65.36,-200.08 22.67,-65.69 42.32,-118.84 58.9,-158.81 16.24,-39.95 32.85,-75.15 49.43,-105.62 16.6,-30.47 32.17,-53.17 46.74,-68.4 34.19,-37.57 81.58,-56.53 141.85,-56.53 102.93,0 154.73,44.68 154.73,134.07 0,83.95 -45.04,237.01 -135.08,459.45 -12.55,31.81 -19.65,51.46 -22.36,58.57 2.71,-0.67 5.09,-1.01 6.77,-1.37 2.04,-0.33 4.41,-0.67 7.13,-0.67 35.53,0 63.99,6.43 84.98,19.31 20.64,12.86 31.15,30.11 31.15,52.13 0,14.54 -8.81,35.2 -26.75,62.29 -17.61,27.09 -36.57,51.13 -56.89,71.79 -19.96,21 -37.24,35.54 -51.8,44 -13.87,7.46 -40.62,14.9 -80.91,23.04l-4.06 15.91c-4.75,10.15 -11.52,28.43 -20.66,55.19 -13.89,38.61 -28.1,77.88 -42.66,116.8 -14.56,39.28 -26.42,69.41 -36.23,91.08 -9.48,21.67 -18.96,39.95 -28.1,54.51 -11.52,16.27 -24.37,29.8 -38.94,41.31 -31.84,24.71 -68.04,44.68 -109.02,60.61 -41.31,15.57 -75.17,23.35 -102.59,23.35 -31.15,0 -55.52,-7.77 -73.47,-23.01 -17.94,-15.57 -26.75,-37.24 -26.75,-65.36 0,-48.42 24.74,-147.61 74.5,-298.28 11.85,-32.82 19.96,-57.2 24.71,-72.44l-352.46 -5.09zm1655.63 -630.42c-45.37,45.71 -78.89,83.28 -99.55,112.74 -20.99,29.46 -43.33,71.43 -67.04,126.28 -17.95,39.61 -30.81,81.6 -38.61,125.96 -9.81,39.28 -14.9,89.38 -14.9,150.99 0,86.69 8.13,158.79 24.74,216.68 16.58,57.92 40.96,101.59 73.46,131.05 32.49,29.44 71.43,44 116.8,44 37.24,0 75.17,-13.53 113.75,-40.62 38.61,-27.09 73.47,-62.65 104.97,-106.65 31.48,-44.03 56.53,-93.12 75.84,-147.3 19.29,-54.17 28.77,-106.65 28.77,-156.74 0,-90.74 -31.15,-185.2 -93.09,-283.72 -23.37,-39.61 -34.89,-67.04 -34.89,-81.27 0,-27.42 14.9,-54.51 44.7,-81.6 33.52,-32.15 72.46,-60.94 116.13,-86.33 43.33,-25.05 77.88,-37.6 102.93,-37.6 14.56,0 30.14,3.41 46.04,10.51 16.24,6.77 28.77,15.57 37.24,26.06 21.33,22.02 38.94,62.31 52.81,120.88 13.89,58.23 20.66,120.54 20.66,185.87 0,156.07 -31.81,300.32 -95.8,432.02 -63.65,132.04 -150.34,236.67 -259.7,313.86 -109.33,76.85 -227.84,115.45 -355.48,115.45 -73.47,0 -146.26,-13.53 -218.39,-40.62 -72.12,-27.09 -130.35,-63.65 -175.39,-109.36 -76.18,-75.84 -114.09,-175.39 -114.09,-298.62 0,-71.45 13.89,-146.96 41.65,-227.19 27.76,-79.9 66,-157.78 114.42,-233.62 48.76,-75.82 104.97,-144.89 168.96,-207.88 63.65,-62.98 129.32,-112.41 196.7,-148.97 61.64,-32.85 127.65,-59.24 198.4,-79.23 70.78,-19.96 133.06,-29.8 186.57,-29.8 75.5,0 113.08,11.52 113.08,34.89 0,9.14 -7.8,23.37 -23.7,42.66 -29.11,27.09 -54.51,46.04 -75.84,57.56 -21.67,11.16 -56.89,23.7 -105.64,37.57 -53.15,15.91 -91.41,30.13 -115.1,43 -23.7,13.22 -54.17,35.89 -91.41,69.07zm1006.9 -57.22l13.87 -34.52c-21.67,0 -40.28,1.68 -55.52,5.42 -14.9,3.72 -32.85,9.48 -53.48,17.25 -25.07,9.14 -41.99,13.89 -51.46,13.89 -11.18,0 -20.32,-4.41 -27.76,-12.86 -7.13,-8.81 -10.85,-19.31 -10.85,-31.84 0,-26.06 10.48,-52.47 31.14,-80.23 21,-27.43 46.38,-46.74 76.85,-57.9 39.61,-15.91 90.74,-28.79 153.39,-38.27 62.29,-9.81 124.26,-14.57 185.87,-14.57 69.41,0 131.7,5.09 186.89,14.9 55.18,9.84 104.27,25.74 147.29,47.75 42.66,21.67 80.57,48.75 112.74,81.26 32.49,32.49 57.56,70.08 74.81,113.08 17.61,43 26.42,88.7 26.42,136.79 0,43.67 -8.8,92.76 -26.42,146.93 -17.25,54.18 -41.63,106.98 -72.8,158.79 -31.14,51.46 -65,95.13 -102.23,130.69 -43,41.99 -97.17,77.19 -163.2,105.98 -65.67,28.77 -125.6,43 -179.78,43 -23.37,0 -43.67,-4.06 -60.94,-12.52 -17.61,-8.13 -26.41,-18.28 -26.41,-30.14 0,-18.62 6.79,-35.89 20.66,-52.14 13.89,-15.91 39.61,-36.23 76.52,-59.93 31.5,-18.28 61.28,-40.62 89.06,-66.37 33.16,-36.23 57.2,-74.81 72.77,-115.79 15.6,-41.29 23.37,-90.05 23.37,-146.93 0,-54.18 -9.14,-99.89 -27.43,-137.8 -17.94,-37.59 -47.39,-71.45 -88.37,-100.89l-136.78 440.13 -25.05 77.21c-10.48,30.47 -24.71,82.61 -42.66,156.75 -32.85,127.64 -63.32,216.01 -91.75,265.77 -12.52,21.67 -28.79,43.35 -48.42,64.33 -31.81,27.78 -72.12,52.16 -120.54,73.13 -48.75,20.66 -90.72,31.17 -125.6,31.17 -23.37,0 -41.65,-6.79 -55.19,-20.32 -13.53,-13.54 -20.32,-32.51 -20.32,-57.22 0,-27.09 6.79,-66.7 20.32,-118.84 13.53,-52.14 41.65,-145.59 83.98,-280.67l17.59 -55.52 18.98 -60.27 180.45 -538.67z"/>
 </g>
</svg>
